HIERARCHY
ROOT hip
{
	OFFSET 0.000000 0.000000 0.000000 
	CHANNELS 6 Xposition Yposition Zposition Xrotation Zrotation Yrotation
	JOINT abdomen
	{
		OFFSET 0.000000 3.402643 0.000000 
		CHANNELS 3 Xrotation Zrotation Yrotation
		JOINT chest
		{
			OFFSET 0.000000 8.438565 -0.680529 
			CHANNELS 3 Xrotation Zrotation Yrotation
			JOINT neck
			{
				OFFSET 0.000000 10.207942 -0.272212 
				CHANNELS 3 Xrotation Zrotation Yrotation
				JOINT head
				{
					OFFSET 0.000000 3.130431 0.000000 
					CHANNELS 3 Xrotation Zrotation Yrotation
					End Site
					{
						OFFSET 0.000000 3.130435 0.000000 
					}
				}
			}
			JOINT lCollar
			{
				OFFSET 3.470700 6.669187 -0.816635 
				CHANNELS 3 Yrotation Zrotation Xrotation
				JOINT lShldr
				{
					OFFSET 3.198488 0.000000 0.000000 
					CHANNELS 3 Zrotation Yrotation Xrotation
					JOINT lForeArm
					{
						OFFSET 10.139888 0.000000 0.000000 
						CHANNELS 3 Yrotation Zrotation Xrotation
						JOINT lHand
						{
							OFFSET 8.370511 0.000000 0.000000 
							CHANNELS 3 Zrotation Yrotation Xrotation
							End Site
							{
								OFFSET 4.083176 0.000000 0.000000 
							}
						}
					}
				}
			}
			JOINT rCollar
			{
				OFFSET -3.470700 6.669187 -0.816635 
				CHANNELS 3 Yrotation Zrotation Xrotation
				JOINT rShldr
				{
					OFFSET -3.198488 0.000000 0.000000 
					CHANNELS 3 Zrotation Yrotation Xrotation
					JOINT rForeArm
					{
						OFFSET -10.139888 0.000000 0.000000 
						CHANNELS 3 Yrotation Zrotation Xrotation
						JOINT rHand
						{
							OFFSET -8.370511 0.000000 0.000000 
							CHANNELS 3 Zrotation Yrotation Xrotation
							End Site
							{
								OFFSET -4.083176 0.000000 0.000000 
							}
						}
					}
				}
			}
		}
	}
	JOINT lThigh
	{
		OFFSET 5.308129 -1.633274 1.361059 
		CHANNELS 3 Xrotation Zrotation Yrotation
		JOINT lShin
		{
			OFFSET -2.041588 -20.007561 0.000000 
			CHANNELS 3 Xrotation Zrotation Yrotation
			JOINT lFoot
			{
				OFFSET 0.000000 -19.190928 -1.224953 
				CHANNELS 3 Xrotation Yrotation Zrotation
				End Site
				{
					OFFSET 0.000000 -2.449906 4.627600 
				}
			}
		}
	}
	JOINT rThigh
	{
		OFFSET -5.308129 -1.633274 1.361059 
		CHANNELS 3 Xrotation Zrotation Yrotation
		JOINT rShin
		{
			OFFSET 2.041588 -20.007561 0.000000 
			CHANNELS 3 Xrotation Zrotation Yrotation
			JOINT rFoot
			{
				OFFSET 0.000000 -19.190928 -1.224953 
				CHANNELS 3 Xrotation Yrotation Zrotation
				End Site
				{
					OFFSET 0.000000 -2.449906 4.627600 
				}
			}
		}
	}
}
MOTION
Frames: 19
Frame Time: 0.016667
0.248105 47.739151 -0.852877 -6.389053 2.596663 -5.210337 16.115040 -8.599627 7.456160 -9.789499 -2.457178 6.001446 23.115799 -6.708633 -0.591052 -21.930017 13.447569 38.159126 9.082082 4.695091 23.588978 -41.854343 -22.022585 -0.308581 -90.810455 -2.854279 11.406526 -45.001968 -39.539246 18.469227 -7.365613 -5.395580 23.895235 44.897846 14.114753 100.672478 35.824429 -27.214712 11.457967 25.375242 41.971794 -12.585939 -6.305475 4.546072 18.447599 42.205887 -5.168500 -3.021902 -10.900652 -9.063008 -0.234220 -14.956236 -12.066404 -2.021041 55.146603 12.067165 6.748132 -6.014235 2.112882 10.426973 
0.248105 47.739151 -0.852877 -6.389053 2.596663 -5.210337 16.115040 -8.599627 7.456160 -9.789499 -2.457178 6.001446 23.115799 -6.708633 -0.591052 -21.930017 13.447569 38.159126 9.082082 4.695091 23.588978 -41.854343 -22.022585 -0.308581 -90.810455 -2.854279 11.406526 -45.001968 -39.539246 18.469227 -7.365613 -5.395580 23.895235 44.897846 14.114753 100.672478 35.824429 -27.214712 11.457967 25.375242 41.971794 -12.585939 -6.305475 4.546072 18.447599 42.205887 -5.168500 -3.021902 -10.900652 -9.063008 -0.234220 -14.956236 -12.066404 -2.021041 55.146603 12.067165 6.748132 -6.014235 2.112882 10.426973 
0.153043 47.535595 -0.952478 -6.296707 2.459769 -5.395283 16.115040 -8.599627 7.456160 -9.453089 -2.311372 6.029923 22.556456 -7.040608 -0.620171 -21.717548 13.676964 38.642937 8.950252 4.825778 23.580223 -40.822948 -23.168213 -0.765063 -92.156891 -1.829865 14.137283 -46.042084 -40.152847 19.296507 -7.332825 -5.641480 23.862906 45.350445 13.641000 101.141899 36.480499 -26.886929 12.009305 25.879175 43.283501 -11.036163 -8.872952 6.273475 18.881773 46.849903 -5.411042 -3.256242 -9.934616 -10.001974 -2.445930 -15.202805 -11.677896 -1.893223 55.278122 12.206382 6.811260 -8.196969 1.642218 9.364963 
0.057988 47.332058 -1.052073 -6.214194 2.332653 -5.580679 16.115040 -8.599627 7.456160 -9.107134 -2.165541 6.068593 21.986544 -7.382357 -0.640797 -21.495266 13.915046 39.138905 8.827448 4.960437 23.570898 -39.773586 -24.303532 -1.249897 -93.552322 -0.859705 16.893902 -47.118038 -40.754593 20.165234 -7.313265 -5.882429 23.829481 45.807583 13.151926 101.609154 37.135693 -26.553610 12.560923 26.459408 44.574581 -9.433994 -11.452312 8.023355 19.246531 51.507492 -5.597519 -3.524171 -8.972890 -11.008295 -4.635152 -15.467938 -11.298250 -1.746200 55.398151 12.363140 6.843334 -10.390312 1.224718 8.315426 
-0.011965 47.238281 -1.172242 -6.190797 2.156371 -5.931606 16.115040 -8.599627 7.456160 -8.746020 -1.971180 6.106944 21.628939 -7.597172 -0.650493 -21.335581 14.142557 39.628445 8.737123 4.995756 23.577307 -39.026924 -25.339214 -1.567781 -94.279221 -0.243690 18.896042 -48.008297 -41.267345 20.963272 -7.213877 -5.986552 23.827845 46.150982 12.816428 101.953499 37.304726 -26.577286 12.745907 26.960835 45.806133 -7.932688 -13.631023 9.743428 19.698511 55.502045 -5.678451 -3.741018 -8.546124 -11.406447 -6.008539 -15.784422 -10.923068 -1.627377 55.520256 12.430439 6.871594 -11.131146 0.815655 8.230052 
-0.081912 47.144527 -1.292406 -6.175744 1.989975 -6.273196 16.115040 -8.599627 7.456160 -8.384646 -1.776846 6.145367 21.263102 -7.821737 -0.671174 -21.168888 14.363256 40.127758 8.638657 5.025693 23.574732 -38.260105 -26.369658 -1.902453 -95.027206 0.341594 20.904829 -48.907654 -41.777851 21.770227 -7.118463 -6.081763 23.826263 46.501717 12.468235 102.298340 37.465282 -26.602068 12.927224 27.517752 47.024979 -6.379916 -15.800990 11.475015 20.070814 59.525761 -5.766771 -3.949428 -8.113128 -11.844810 -7.378193 -16.121347 -10.565318 -1.511016 55.661324 12.499785 6.931345 -11.864742 0.396046 8.122395 
-0.119887 47.187721 -1.390525 -6.265700 1.901292 -6.624561 16.115040 -8.599627 7.456160 -8.129570 -1.669980 6.164605 21.305145 -7.958430 -0.680859 -21.078712 14.544753 40.568996 8.540955 4.954876 23.600204 -37.860695 -27.252890 -2.073180 -95.131569 0.493705 22.262133 -49.598305 -42.149212 22.400227 -7.075496 -6.032522 23.837296 46.749889 12.169541 102.571678 37.349415 -26.746778 12.904492 27.913437 47.880501 -5.335798 -17.047337 12.582554 20.332354 62.108768 -5.737643 -4.010926 -8.391435 -11.571642 -7.544920 -15.961654 -10.201902 -1.395182 55.143486 12.371004 6.830032 -11.688876 0.010069 8.553850 
-0.157859 47.230927 -1.488643 -6.355762 1.822355 -6.975945 16.115040 -8.599627 7.456160 -7.864658 -1.563121 6.183859 21.357119 -8.104889 -0.690534 -20.985147 14.722409 41.012951 8.448367 4.896844 23.624971 -37.469761 -28.126596 -2.251160 -95.240936 0.631829 23.626076 -50.296741 -42.510204 23.041874 -7.031536 -5.984460 23.857969 47.008427 11.869123 102.845016 37.228458 -26.887232 12.894093 28.315767 48.730556 -4.288740 -18.297430 13.705654 20.575638 64.740402 -5.708128 -4.065961 -8.698737 -11.300602 -7.692034 -15.807459 -9.841988 -1.288757 54.627605 12.223216 6.759831 -11.456707 -0.412103 8.988119 
-0.160025 47.389874 -1.544758 -6.623503 1.782481 -7.259316 16.115040 -8.599627 7.456160 -7.654833 -1.514521 6.203126 21.769875 -8.202521 -0.701592 -20.916521 14.785823 41.327530 8.342926 4.843769 23.651165 -37.616486 -28.891430 -2.151260 -94.843567 0.428644 24.801493 -51.224098 -42.957722 23.973087 -7.087158 -5.882434 23.862989 47.229633 11.575003 103.102402 36.898060 -27.001871 12.580218 28.802864 49.479187 -3.251897 -18.298508 14.049044 20.720573 65.737328 -5.591198 -4.104682 -8.915190 -10.532583 -7.162812 -14.949680 -9.423024 -1.193668 53.348255 11.835878 6.558206 -10.823112 -0.998943 9.928696 
-0.162187 47.548828 -1.600869 -6.890856 1.742613 -7.542386 16.115040 -8.599627 7.456160 -7.443671 -1.456244 6.212894 22.193974 -8.309898 -0.720931 -20.849415 14.849905 41.632828 8.238344 4.789213 23.667650 -37.772091 -29.640303 -2.052020 -94.441170 0.215118 25.984009 -52.172516 -43.396416 24.925640 -7.129855 -5.785406 23.867661 47.446602 11.269587 103.355721 36.570522 -27.108171 12.271551 29.308912 50.222488 -2.197004 -18.299509 14.402197 20.874369 66.754707 -5.454235 -4.112588 -9.126699 -9.744913 -6.642375 -14.086170 -9.000471 -1.062050 52.048779 11.472622 6.329464 -10.159596 -1.570801 10.878856 
-0.115712 47.757732 -1.618231 -7.157929 1.847916 -7.816284 16.115040 -8.599627 7.456160 -7.413316 -1.446535 6.212894 22.812775 -8.475883 -0.732035 -20.785351 14.847915 41.848595 8.199440 4.731310 23.679470 -38.316784 -30.282593 -1.781008 -93.754799 -0.267967 27.027676 -52.975552 -43.922752 25.882317 -7.220431 -5.750524 23.861637 47.601757 10.970995 103.583595 36.390656 -27.243839 11.970188 30.232496 50.952366 -0.821597 -17.245203 13.885183 20.803738 66.243225 -5.445645 -4.094380 -9.100614 -8.881452 -6.325668 -13.054489 -8.807187 -1.070537 50.516186 10.996102 6.072506 -9.314315 -1.919085 11.836833 
-0.069230 47.966637 -1.635589 -7.426015 1.953037 -8.090528 16.115040 -8.599627 7.456160 -7.391672 -1.427119 6.212651 23.433247 -8.651613 -0.751370 -20.716900 14.854903 42.057598 8.156621 4.682336 23.691290 -38.882942 -30.928165 -1.492930 -93.065506 -0.727409 28.069788 -53.783272 -44.453304 26.849079 -7.311003 -5.715632 23.855587 47.752838 10.661837 103.808365 36.216274 -27.382271 11.675172 31.204006 51.665539 0.609145 -16.179310 13.365024 20.723055 65.712471 -5.445262 -4.059418 -9.060699 -8.033897 -6.027468 -11.997574 -8.600436 -1.055665 48.973927 10.537009 5.830269 -8.455614 -2.271109 12.824946 
0.013197 48.142311 -1.617348 -7.584326 2.086640 -8.423369 16.115040 -8.599627 7.456160 -7.559454 -1.349403 6.232183 24.091787 -8.856652 -0.761029 -20.611595 14.867460 42.206360 8.119833 4.595032 23.712595 -39.364754 -31.355408 -1.256104 -92.554832 -1.362854 28.957991 -54.418655 -44.919170 27.627523 -7.452513 -5.785162 23.827806 47.745094 10.377308 103.943916 36.471237 -27.585413 11.588765 32.752686 52.331642 2.542191 -14.363998 12.312190 20.536678 63.813534 -5.434143 -3.994301 -8.886595 -7.495343 -6.218741 -11.149652 -8.650275 -1.106568 47.703880 10.224563 5.639881 -7.853210 -2.250724 13.216576 
0.095628 48.317970 -1.599104 -7.754342 2.219881 -8.766381 16.115040 -8.599627 7.456160 -7.726122 -1.261984 6.251490 24.752092 -9.071436 -0.781851 -20.501877 14.889180 42.345905 8.083872 4.506329 23.724283 -39.855949 -31.786932 -1.007915 -92.039726 -1.978992 29.847340 -55.079189 -45.373966 28.433996 -7.597069 -5.846936 23.810501 47.743908 10.074002 104.080353 36.723507 -27.779757 11.502654 34.366058 52.958160 4.553645 -12.544796 11.242264 20.343960 61.935925 -5.376608 -3.919223 -8.727699 -6.994648 -6.420563 -10.278741 -8.677813 -1.158452 46.409855 9.882002 5.454159 -7.258963 -2.246572 13.631790 
0.208086 48.397964 -1.557142 -7.855788 2.371297 -9.226544 16.115040 -8.599627 7.456160 -7.921493 -1.077460 6.290150 25.169239 -9.344805 -0.802717 -20.344193 14.961024 42.498013 8.073728 4.334597 23.743271 -39.873478 -32.125420 -0.977501 -91.955444 -2.592733 30.470495 -55.680298 -45.700729 29.089268 -7.648341 -6.001216 23.770327 47.639061 9.744190 104.188278 37.252048 -28.020615 11.122685 36.428833 53.374378 6.945340 -10.252425 9.821167 20.020420 58.917900 -5.317541 -3.782559 -8.560913 -6.700959 -6.955550 -9.899556 -8.952483 -1.232504 45.917591 9.756046 5.370269 -7.245271 -1.758301 13.187704 
0.320549 48.477936 -1.515180 -7.959690 2.522158 -9.687179 16.115040 -8.599627 7.456160 -8.116614 -0.892963 6.328875 25.586586 -9.618168 -0.823627 -20.183140 15.025160 42.650169 8.072663 4.166793 23.761829 -39.896915 -32.469959 -0.952301 -91.860771 -3.202463 31.086828 -56.283405 -46.033325 29.763657 -7.686896 -6.160439 23.731890 47.533245 9.414817 104.295143 37.784946 -28.272505 10.737574 38.535553 53.742458 9.391256 -7.948887 8.417152 19.637747 55.909203 -5.276337 -3.640606 -8.401745 -6.416348 -7.517373 -9.520185 -9.217391 -1.318450 45.418335 9.618917 5.254693 -7.222527 -1.292042 12.765356 
0.453194 48.425064 -1.471121 -7.916713 2.633258 -10.235231 16.115040 -8.599627 7.456160 -8.299982 -0.601688 6.406510 25.632748 -9.872000 -0.842901 -19.950480 15.122051 42.789143 8.063054 4.091229 23.781483 -39.487514 -32.801888 -1.139222 -92.212830 -3.630108 31.461016 -56.758392 -46.233868 30.260611 -7.693403 -6.442392 23.689257 47.496510 9.107202 104.433289 38.367706 -28.413568 9.693270 40.799713 53.866951 12.032010 -5.643552 6.901400 19.242937 52.179535 -5.109487 -3.435582 -8.720027 -6.094648 -7.682233 -9.983959 -9.593389 -1.431647 46.110035 9.560247 5.319278 -7.575137 -0.405679 11.925749 
0.585842 48.372162 -1.427067 -7.877729 2.753313 -10.783763 16.115040 -8.599627 7.456160 -8.472686 -0.310513 6.464907 25.669323 -10.125828 -0.863846 -19.714415 15.211255 42.925674 8.044541 4.011718 23.801785 -39.074112 -33.132488 -1.329259 -92.563339 -4.059758 31.837008 -57.251194 -46.430180 30.776808 -7.691350 -6.720417 23.646700 47.467461 8.797564 104.569473 38.947243 -28.556122 8.664979 43.087109 53.927814 14.713207 -3.329011 5.386252 18.805609 48.441784 -4.923135 -3.246244 -9.046185 -5.759266 -7.841061 -10.454683 -9.966415 -1.513420 46.820709 9.508592 5.360175 -7.941865 0.487420 11.073032 
0.724757 48.207062 -1.420743 -7.661748 2.893284 -11.186040 16.115040 -8.599627 7.456160 -8.579963 -0.135836 6.513677 25.298527 -10.145358 -0.863847 -19.447329 15.194843 42.962288 7.914228 4.185884 23.791122 -38.388474 -33.688545 -1.638250 -93.010040 -4.194588 31.763487 -57.698807 -46.424133 31.113174 -7.700881 -6.921659 23.621563 47.476677 8.497471 104.719894 39.396881 -28.615038 6.917486 45.272739 53.791367 17.401747 -1.698564 3.990452 18.399803 45.060947 -4.739427 -3.028546 -10.352901 -4.973947 -7.067016 -11.947109 -10.473065 -1.644185 48.754299 9.432787 5.553967 -7.949665 1.695019 10.362672 
